<?xml version="1.0" standalone="no"?>
<!DOCTYPE svg PUBLIC "-//W3C//DTD SVG 20010904//EN"
 "http://www.w3.org/TR/2001/REC-SVG-20010904/DTD/svg10.dtd">
<svg version="1.1" id="Layer_1" xmlns="http://www.w3.org/2000/svg" xmlns:xlink="http://www.w3.org/1999/xlink" x="0px" y="0px"
	 width="100%" viewBox="0 0 589 613" enable-background="new 0 0 589 613" xml:space="preserve">
<path fill="#FFFFFF" opacity="1.000000" stroke="none" 
	d="
M322.000000,614.000000 
	C214.666672,614.000000 107.833336,614.000000 1.000000,614.000000 
	C1.000000,409.666656 1.000000,205.333328 1.000000,1.000000 
	C197.333328,1.000000 393.666656,1.000000 590.000000,1.000000 
	C590.000000,205.333328 590.000000,409.666656 590.000000,614.000000 
	C500.833344,614.000000 411.666656,614.000000 322.000000,614.000000 
M115.093002,308.669006 
	C115.912880,310.486969 116.696274,312.322418 117.557983,314.120331 
	C137.058212,354.805878 165.269470,389.251465 195.714920,421.940277 
	C217.723679,445.570770 241.187637,467.775574 266.052704,488.438324 
	C275.610016,496.380463 285.244812,504.229279 295.724182,512.843872 
	C317.791656,493.414429 340.017334,474.668701 361.289276,454.896881 
	C384.940369,432.913574 407.182526,409.488831 427.283508,384.138947 
	C447.492737,358.652496 465.909760,332.057281 478.169708,301.650391 
	C486.858795,280.099884 492.114777,258.010742 488.907928,234.593628 
	C485.578461,210.281158 475.217224,189.524338 456.647858,173.294189 
	C435.830811,155.099564 411.246613,146.700378 383.876953,149.350250 
	C352.938568,152.345642 328.817902,168.024231 311.679596,193.839005 
	C305.321167,203.416473 300.334930,213.904953 294.718353,223.986221 
	C294.338348,223.266846 293.756500,222.121674 293.136078,220.997787 
	C287.369202,210.551010 282.722656,199.259750 275.617706,189.819031 
	C252.117035,158.592438 220.623596,143.862915 181.549484,150.412659 
	C149.876343,155.721817 126.079552,173.521973 111.023598,202.213196 
	C102.022133,219.366714 99.757111,237.892181 101.037117,256.951111 
	C101.919556,270.090332 104.746368,282.830383 109.822388,295.925171 
	C109.822388,299.631531 109.822388,303.337860 109.822388,307.208740 
	C111.882294,307.498138 113.461136,307.719971 115.093002,308.669006 
z"/>
<path fill="#9CE7E8" opacity="1.000000" stroke="none" 
	d="
M109.903694,295.000214 
	C104.746368,282.830383 101.919556,270.090332 101.037117,256.951111 
	C99.757111,237.892181 102.022133,219.366714 111.023598,202.213196 
	C126.079552,173.521973 149.876343,155.721817 181.549484,150.412659 
	C220.623596,143.862915 252.117035,158.592438 275.617706,189.819031 
	C282.722656,199.259750 287.369202,210.551010 293.136078,220.997787 
	C293.756500,222.121674 294.338348,223.266846 294.718353,223.986221 
	C300.334930,213.904953 305.321167,203.416473 311.679596,193.839005 
	C328.817902,168.024231 352.938568,152.345642 383.876953,149.350250 
	C411.246613,146.700378 435.830811,155.099564 456.647858,173.294189 
	C475.217224,189.524338 485.578461,210.281158 488.907928,234.593628 
	C492.114777,258.010742 486.858795,280.099884 478.169708,301.650391 
	C465.909760,332.057281 447.492737,358.652496 427.283508,384.138947 
	C407.182526,409.488831 384.940369,432.913574 361.289276,454.896881 
	C340.017334,474.668701 317.791656,493.414429 295.724182,512.843872 
	C285.244812,504.229279 275.610016,496.380463 266.052704,488.438324 
	C241.187637,467.775574 217.723679,445.570770 195.714920,421.940277 
	C165.269470,389.251465 137.058212,354.805878 117.557983,314.120331 
	C116.696274,312.322418 115.912880,310.486969 115.529465,308.247986 
	C160.609039,307.816711 205.252487,307.880493 249.894821,307.686127 
	C254.557266,307.665802 255.339584,309.287872 255.297836,313.439453 
	C255.103577,332.760712 255.205490,352.085022 255.222595,371.408234 
	C255.224152,373.172882 255.375885,374.937408 255.453415,376.606293 
	C260.949982,376.606293 265.855194,376.606293 270.768951,376.606293 
	C270.768951,338.973785 270.768951,301.742493 270.768951,264.316589 
	C265.549500,264.316589 260.658417,264.316589 255.214355,264.316589 
	C255.214355,274.537933 255.214355,284.451019 255.214355,295.000214 
	C206.408966,295.000214 158.156326,295.000214 109.903694,295.000214 
M335.980194,331.113403 
	C377.473755,331.113403 418.967316,331.113403 460.506134,331.113403 
	C460.506134,326.620605 460.506134,323.039856 460.506134,318.848511 
	C418.470947,318.848511 376.761658,318.848511 335.007416,317.931030 
	C335.007416,297.058655 335.007416,276.186279 335.007416,255.371994 
	C329.238586,255.371994 324.344818,255.371994 319.510864,255.371994 
	C319.510864,290.048187 319.510864,324.343903 319.510864,358.480286 
	C324.877380,358.480286 329.772308,358.480286 335.052368,358.480286 
	C335.052368,349.084320 335.052368,340.117920 335.980194,331.113403 
M307.900574,324.570190 
	C298.020630,287.763214 288.140656,250.956207 278.201477,213.928558 
	C272.647980,215.422592 267.921814,216.694046 262.922485,218.038986 
	C279.274872,279.066010 295.461334,339.473755 311.748535,400.257507 
	C317.075287,398.889526 321.844055,397.664856 327.108063,396.313019 
	C320.691895,372.460052 314.359894,348.919983 307.900574,324.570190 
z"/>
<path fill="#1C9FDB" opacity="1.000000" stroke="none" 
	d="
M109.863037,295.462708 
	C158.156326,295.000214 206.408966,295.000214 255.214355,295.000214 
	C255.214355,284.451019 255.214355,274.537933 255.214355,264.316589 
	C260.658417,264.316589 265.549500,264.316589 270.768951,264.316589 
	C270.768951,301.742493 270.768951,338.973785 270.768951,376.606293 
	C265.855194,376.606293 260.949982,376.606293 255.453415,376.606293 
	C255.375885,374.937408 255.224152,373.172882 255.222595,371.408234 
	C255.205490,352.085022 255.103577,332.760712 255.297836,313.439453 
	C255.339584,309.287872 254.557266,307.665802 249.894821,307.686127 
	C205.252487,307.880493 160.609039,307.816711 115.502945,307.884369 
	C113.461136,307.719971 111.882294,307.498138 109.822388,307.208740 
	C109.822388,303.337860 109.822388,299.631531 109.863037,295.462708 
z"/>
<path fill="#1B9FDB" opacity="1.000000" stroke="none" 
	d="
M307.964233,324.975037 
	C314.359894,348.919983 320.691895,372.460052 327.108063,396.313019 
	C321.844055,397.664856 317.075287,398.889526 311.748535,400.257507 
	C295.461334,339.473755 279.274872,279.066010 262.922485,218.038986 
	C267.921814,216.694046 272.647980,215.422592 278.201477,213.928558 
	C288.140656,250.956207 298.020630,287.763214 307.964233,324.975037 
z"/>
<path fill="#1C9FDB" opacity="1.000000" stroke="none" 
	d="
M335.052368,331.151489 
	C335.052368,340.117920 335.052368,349.084320 335.052368,358.480286 
	C329.772308,358.480286 324.877380,358.480286 319.510864,358.480286 
	C319.510864,324.343903 319.510864,290.048187 319.510864,255.371994 
	C324.344818,255.371994 329.238586,255.371994 335.007416,255.371994 
	C335.007416,276.186279 335.007416,297.058655 335.012848,318.865112 
	C335.029633,323.583282 335.041016,327.367371 335.052368,331.151489 
z"/>
<path fill="#199EDB" opacity="1.000000" stroke="none" 
	d="
M335.516296,331.132446 
	C335.041016,327.367371 335.029633,323.583282 335.035339,319.323853 
	C376.761658,318.848511 418.470947,318.848511 460.506134,318.848511 
	C460.506134,323.039856 460.506134,326.620605 460.506134,331.113403 
	C418.967316,331.113403 377.473755,331.113403 335.516296,331.132446 
z"/>
</svg>